<svg t="1716449886377" class="icon" viewBox="0 0 1024 1024" version="1.1" xmlns="http://www.w3.org/2000/svg" p-id="22896" width="200" height="200"><path d="M543.232 961.536l136.192-38.4-97.28-97.28-38.912 135.68z m400.896-337.92l-64-64c-15.872-15.872-31.232-0.512-31.232-0.512l-32.768 32.768 97.28 97.28 32.768-32.768s15.36-15.36-2.048-32.768z m-352.768 192.512l97.28 97.28 214.528-214.528-97.28-97.28-214.528 214.528zM671.744 677.376h-1.024c-19.968 0-35.84-16.384-35.84-35.84 0-19.968 16.384-35.84 35.84-35.84h1.024c19.968 0 35.84 16.384 35.84 35.84 0 19.968-15.872 35.84-35.84 35.84z" p-id="22897" fill="#e6e6e6"></path><path d="M694.784 613.888c-32.256-25.6-68.608-46.08-108.032-60.928 64.512-44.032 107.52-117.76 107.52-201.728 0-134.144-109.568-243.712-243.712-243.712-134.144 0-243.712 109.568-243.712 243.712 0 83.968 42.496 158.208 107.52 201.728-143.36 52.736-247.296 186.368-257.536 345.6v11.776c0 19.968 16.384 36.352 36.352 36.352h0.512c19.968 0 36.352-16.384 36.352-36.352V901.12v-2.56c12.8-165.888 151.552-296.96 320.512-296.96 74.752 0 143.36 25.6 197.632 68.096l44.544-44.544 2.048-11.264zM450.56 527.36c-97.28 0-176.128-78.848-176.128-176.128s78.848-176.128 176.128-176.128 176.128 78.848 176.128 176.128S547.84 527.36 450.56 527.36z" stroke="#979797" ></path></svg>