<svg t="1716450745500" class="icon" viewBox="0 0 1238 1024" version="1.1" xmlns="http://www.w3.org/2000/svg" p-id="35091" width="200" height="200"><path d="M783.701333 477.141333c61.909333-48.938667 101.845333-124.8 101.845333-210.005333C885.546667 119.850667 766.549333 0 620.288 0 474.026667 0 355.029333 119.850667 355.029333 267.136c0 85.205333 39.978667 161.066667 101.845333 210.005333-163.072 65.664-278.656 226.048-278.656 413.312l0 89.002667C178.218667 1004.074667 197.973333 1024 222.421333 1024l795.776 0c24.448 0 44.202667-19.925333 44.202667-44.544L1062.4 890.453333C1062.357333 703.104 946.773333 542.762667 783.701333 477.141333L783.701333 477.141333 783.701333 477.141333 783.701333 477.141333 783.701333 477.141333 783.701333 477.141333zM444.586667 266.794667c0-97.621333 78.805333-176.938667 175.701333-176.938667 96.938667 0 175.744 79.36 175.744 176.938667 0 97.578667-78.805333 176.938667-175.744 176.938667C523.349333 443.733333 444.586667 364.373333 444.586667 266.794667L444.586667 266.794667 444.586667 266.794667 444.586667 266.794667 444.586667 266.794667 444.586667 266.794667zM964.949333 933.418667 275.584 933.418667 275.584 890.026667c0-191.402667 154.624-347.136 344.746667-347.136 190.037333 0 344.618667 155.733333 344.618667 347.136L964.949333 933.418667 964.949333 933.418667 964.949333 933.418667 964.949333 933.418667 964.949333 933.418667 964.949333 933.418667zM303.189333 511.274667l9.472-2.090667c20.352-6.229333 34.858667-22.656 34.858667-41.898667 0-18.602667-13.568-34.474667-32.768-41.173333C262.784 404.48 229.290667 356.949333 229.290667 304.554667c0-59.349333 55.808-109.354667 114.218667-126.677333 10.24-28.970667 25.685333-55.808 45.397333-79.488 3.413333-5.248 7.04-10.368 10.837333-15.36C395.818667 82.816 392.106667 81.92 388.053333 81.92c-133.717333 0-242.517333 99.84-242.517333 222.634667 0 56.362667 23.381333 109.184 63.061333 149.376C82.346667 513.962667 0 634.069333 0 769.877333l0 68.864c0 24.618667 21.717333 44.501333 48.469333 44.501333l86.912 0c0-30.506667 3.413333-50.048 9.813333-78.848L83.754667 804.394667l0-34.56C83.797333 646.869333 173.909333 541.226667 303.189333 511.274667L303.189333 511.274667 303.189333 511.274667 303.189333 511.274667 303.189333 511.274667 303.189333 511.274667zM1028.778667 453.930667c39.722667-40.149333 63.104-93.013333 63.104-149.376 0-122.794667-108.8-222.677333-242.517333-222.677333-4.053333 0-7.808 0.896-11.690667 1.066667 3.754667 5.034667 7.381333 10.154667 10.837333 15.36 19.712 23.722667 35.2 50.517333 45.354667 79.488 58.410667 17.322667 122.325333 67.328 122.325333 126.677333 0 52.394667-33.578667 99.925333-85.418667 121.557333-19.2 6.698667-32.768 22.570667-32.768 41.173333 0 19.242667 14.549333 35.626667 34.858667 41.898667l9.472 2.090667c129.322667 29.994667 219.392 135.594667 219.392 258.645333l0 34.56-69.504 0c6.442667 28.757333 9.770667 48.341333 9.770667 78.848l86.912 0c26.837333 0 48.512-19.882667 48.512-44.501333l0-68.864C1237.418667 634.069333 1155.072 513.962667 1028.778667 453.930667L1028.778667 453.930667 1028.778667 453.930667 1028.778667 453.930667 1028.778667 453.930667 1028.778667 453.930667zM1028.778667 453.930667"></path></svg>