<svg t="1716449316342" class="icon" viewBox="0 0 1024 1024" version="1.1" xmlns="http://www.w3.org/2000/svg" p-id="696" width="200" height="200"><path d="M962.56 573.44h-163.84a61.44 61.44 0 0 1 0-122.88h163.84a61.44 61.44 0 0 1 0 122.88zM614.4 222.98624V95.72352c154.8288 38.13376 276.97152 158.88384 314.90048 313.87648h-128.90112A308.0192 308.0192 0 0 0 614.4 222.98624zM512 286.72A61.44 61.44 0 0 1 450.56 225.28v-163.84a61.44 61.44 0 0 1 122.88 0v163.84A61.44 61.44 0 0 1 512 286.72z m-289.01376 122.88H95.72352C133.85728 254.7712 254.60736 132.62848 409.6 94.69952v128.90112A308.0192 308.0192 0 0 0 222.98624 409.6zM286.72 512A61.44 61.44 0 0 1 225.28 573.44h-163.84a61.44 61.44 0 0 1 0-122.88h163.84A61.44 61.44 0 0 1 286.72 512z m122.88 289.01376v127.22176c-154.8288-38.0928-276.97152-158.84288-314.90048-313.83552h128.90112A308.0192 308.0192 0 0 0 409.6 801.01376zM512 737.28a61.44 61.44 0 0 1 61.44 61.44v163.84a61.44 61.44 0 0 1-122.88 0v-163.84a61.44 61.44 0 0 1 61.44-61.44zM327.68 512a184.32 184.32 0 1 1 368.64 0 184.32 184.32 0 0 1-368.64 0z m245.76 0a61.44 61.44 0 1 0-122.92096 0.04096A61.44 61.44 0 0 0 573.44 512z m226.95936 102.4h128.90112c-37.92896 154.99264-160.07168 275.74272-314.90048 313.87648v-127.22176A308.14208 308.14208 0 0 0 800.39936 614.4z"  ></path></svg>