<svg t="1716519821624" class="icon" viewBox="0 0 1303 1024" version="1.1" xmlns="http://www.w3.org/2000/svg" p-id="6920" width="200" height="200"><path d="M814.063376 659.935631h-107.799407V1012.370731a11.614751 11.614751 0 0 1-11.614751 11.614751h-87.241298a11.614751 11.614751 0 0 1-11.614751-11.614751V659.935631h-107.552594a11.614751 11.614751 0 0 1-9.117579-18.87397l162.9114-206.002127a11.614751 11.614751 0 0 1 18.249678 0l162.9114 206.16183a11.614751 11.614751 0 0 1-9.117579 18.87397z" p-id="6921" fill="#e6e6e6"></path><path d="M1086.632545 300.691384a465.344997 465.344997 0 0 0-870.394919-0.18874 291.007585 291.007585 0 0 0 74.044037 572.229743h58.364124a11.614751 11.614751 0 0 0 11.614751-11.614751v-87.342927a11.614751 11.614751 0 0 0-11.614751-11.614751h-58.451234A180.319009 180.319009 0 0 1 148.088075 470.774893a182.322553 182.322553 0 0 1 96.257248-63.677872l55.170067-14.329699 20.195149-53.253633a357.284258 357.284258 0 0 1 128.13974-164.769761 354.699976 354.699976 0 0 1 407.271242-0.08711 357.472998 357.472998 0 0 1 128.096185 164.76976l20.108037 53.152004 54.923254 14.518439a181.378855 181.378855 0 0 1 134.048744 174.72941 180.536785 180.536785 0 0 1-180.231898 180.406119h-58.378642a11.614751 11.614751 0 0 0-11.614751 11.614751v87.313891a11.614751 11.614751 0 0 0 11.614751 11.61475h58.364124a290.818846 290.818846 0 0 0 74.566701-572.026484z" p-id="6922" fill="#e6e6e6"></path></svg>